<?xml version="1.0" encoding="UTF-8" standalone="no"?>
<!-- Created with Inkscape (http://www.inkscape.org/) -->

<svg
   xmlns:dc="http://purl.org/dc/elements/1.1/"
   xmlns:cc="http://creativecommons.org/ns#"
   xmlns:rdf="http://www.w3.org/1999/02/22-rdf-syntax-ns#"
   xmlns:svg="http://www.w3.org/2000/svg"
   xmlns="http://www.w3.org/2000/svg"
   xmlns:sodipodi="http://sodipodi.sourceforge.net/DTD/sodipodi-0.dtd"
   xmlns:inkscape="http://www.inkscape.org/namespaces/inkscape"
   width="79.058502"
   height="79.058502"
   id="svg2"
   version="1.1"
   inkscape:version="0.48.3.1 r9886"
   sodipodi:docname="hacmankeyring.svg">
  <defs
     id="defs4">
    <clipPath
       id="clipPath17"
       clipPathUnits="userSpaceOnUse">
      <path
         id="path19"
         clip-rule="evenodd"
         d="m 0,0 595.3,0 0,842 L 0,842 0,0 z"
         inkscape:connector-curvature="0" />
    </clipPath>
    <inkscape:perspective
       id="perspective9"
       inkscape:persp3d-origin="372.04724 : 350.78739 : 1"
       inkscape:vp_z="744.09448 : 526.18109 : 1"
       inkscape:vp_y="0 : 1000 : 0"
       inkscape:vp_x="0 : 526.18109 : 1"
       sodipodi:type="inkscape:persp3d" />
  </defs>
  <sodipodi:namedview
     id="base"
     pagecolor="#ffffff"
     bordercolor="#666666"
     borderopacity="1.0"
     inkscape:pageopacity="0.0"
     inkscape:pageshadow="2"
     inkscape:zoom="4.599177"
     inkscape:cx="34.509687"
     inkscape:cy="40.26718"
     inkscape:document-units="px"
     inkscape:current-layer="layer1"
     showgrid="false"
     inkscape:window-width="1440"
     inkscape:window-height="841"
     inkscape:window-x="0"
     inkscape:window-y="27"
     inkscape:window-maximized="1"
     fit-margin-top="0"
     fit-margin-left="0"
     fit-margin-right="0"
     fit-margin-bottom="0" />
  <metadata
     id="metadata7">
    <rdf:RDF>
      <cc:Work
         rdf:about="">
        <dc:format>image/svg+xml</dc:format>
        <dc:type
           rdf:resource="http://purl.org/dc/dcmitype/StillImage" />
        <dc:title />
      </cc:Work>
    </rdf:RDF>
  </metadata>
  <g
     inkscape:label="Layer 1"
     inkscape:groupmode="layer"
     id="layer1"
     transform="translate(-70.261524,-63.022317)">
    <path
       sodipodi:type="arc"
       style="fill:none;stroke:#ff0000;stroke-width:0.34730159999999999;stroke-linecap:round;stroke-miterlimit:4;stroke-opacity:1;stroke-dasharray:none"
       id="path2985"
       sodipodi:cx="110"
       sodipodi:cy="102.36218"
       sodipodi:rx="38.57143"
       sodipodi:ry="38.57143"
       d="m 148.57143,102.36218 a 38.57143,38.57143 0 1 1 -77.14286,0 38.57143,38.57143 0 1 1 77.14286,0 z"
       transform="matrix(1.0202392,0,0,1.0202392,-2.4355378,-1.882344)" />
    <path
       sodipodi:type="arc"
       style="fill:none;stroke:#ff0000;stroke-width:0.23321404000000001;stroke-linecap:round;stroke-miterlimit:4;stroke-opacity:1;stroke-dasharray:none"
       id="path3755"
       sodipodi:cx="94.364708"
       sodipodi:cy="43.051178"
       sodipodi:rx="5.6531854"
       sodipodi:ry="5.6531854"
       d="m 100.01789,43.051178 a 5.6531854,5.6531854 0 1 1 -11.306367,0 5.6531854,5.6531854 0 1 1 11.306367,0 z"
       transform="matrix(1.519337,0,0,1.519337,-33.581018,12.012008)" />
    <text
       id="text2422"
       y="-279.74167"
       x="628.59039"
       style="font-size:40px;font-style:normal;font-weight:normal;fill:#000000;fill-opacity:1;stroke:none;font-family:Bitstream Vera Sans;stroke-width:0.35433071;stroke-miterlimit:4;stroke-dasharray:none"
       xml:space="preserve"><tspan
         y="-279.74167"
         x="628.59039"
         id="tspan2424"
         sodipodi:role="line" /></text>
    <path
       style="font-size:medium;font-style:normal;font-variant:normal;font-weight:normal;font-stretch:normal;text-indent:0;text-align:start;text-decoration:none;line-height:normal;letter-spacing:normal;word-spacing:normal;text-transform:none;direction:ltr;block-progression:tb;writing-mode:lr-tb;text-anchor:start;baseline-shift:baseline;color:#000000;fill:#00ff00;fill-opacity:1;stroke:none;stroke-width:0.35433070999999999;marker:none;visibility:visible;display:inline;overflow:visible;enable-background:accumulate;font-family:Sans;-inkscape-font-specification:Sans;stroke-opacity:1;stroke-miterlimit:4;stroke-dasharray:none"
       d="m 110.625,95.3125 -1.5,0.0625 A 1.1780816,1.1780816 0 0 0 109,95.40625 l -1.4375,0.21875 a 1.1780816,1.1780816 0 0 0 -0.125,0 L 106.03125,96 a 1.1780816,1.1780816 0 0 0 -0.0937,0.03125 l -1.34375,0.5 a 1.1780816,1.1780816 0 0 0 -0.125,0.03125 l -1.28125,0.625 a 1.1780816,1.1780816 0 0 0 -0.0937,0.0625 l -1.21875,0.71875 a 1.1780816,1.1780816 0 0 0 -0.0937,0.0625 l -1.0939,0.84375 a 1.1780816,1.1780816 0 0 0 -0.0937,0.0625 l -1.03125,0.96875 a 1.1780816,1.1780816 0 0 0 -0.09375,0.0625 L 98.53125,101 a 1.1780816,1.1780816 0 0 0 -0.09375,0.0937 l -0.84375,1.125 a 1.1780816,1.1780816 0 0 0 -0.03125,0.0937 l -0.75,1.1875 a 1.1780816,1.1780816 0 0 0 -0.0625,0.125 l -0.59375,1.28125 A 1.1780816,1.1780816 0 0 0 96.125,105 l -0.5,1.34375 a 1.1780816,1.1780816 0 0 0 -0.0625,0.125 l -0.34375,1.375 a 1.1780816,1.1780816 0 0 0 -0.03125,0.125 l -0.21875,1.46875 a 1.1780816,1.1780816 0 0 0 0,0.0937 l -0.0625,1.5 a 1.1780816,1.1780816 0 0 0 0,0.125 l 0.0625,1.5 a 1.1780816,1.1780816 0 0 0 0,0.125 l 0.21875,1.4375 a 1.1780816,1.1780816 0 0 0 0.03125,0.0937 l 0.34375,1.40625 a 1.1780816,1.1780816 0 0 0 0.0625,0.125 l 0.5,1.34375 a 1.1780816,1.1780816 0 0 0 0.03125,0.0937 l 0.59375,1.2814 a 1.1780816,1.1780816 0 0 0 0.0625,0.0937 l 0.75,1.21875 a 1.1780816,1.1780816 0 0 0 0.0625,0.0937 l 0.8125,1.125 a 1.1780816,1.1780816 0 0 0 0.09375,0.0625 l 0.9375,1.0625 a 1.1780816,1.1780816 0 0 0 0.09375,0.0937 l 1.03125,0.9375 a 1.1780816,1.1780816 0 0 0 0.0937,0.0625 l 1.09375,0.84375 a 1.1780816,1.1780816 0 0 0 0.0937,0.0625 l 1.21875,0.71875 a 1.1780816,1.1780816 0 0 0 0.125,0.0625 l 1.28125,0.625 a 1.1780816,1.1780816 0 0 0 0.0937,0.0312 l 1.3125,0.5 a 1.1780816,1.1780816 0 0 0 0.125,0.0312 l 1.40625,0.34375 a 1.1780816,1.1780816 0 0 0 0.125,0.0312 L 109,126.78125 a 1.1780816,1.1780816 0 0 0 0.125,0.0312 l 1.5,0.0625 a 1.1780816,1.1780816 0 0 0 0.0937,0 l 1.5,-0.0625 a 1.1780816,1.1780816 0 0 0 0.125,-0.0312 l 1.4375,-0.21875 a 1.1780816,1.1780816 0 0 0 0.125,-0.0312 l 1.40625,-0.34375 a 1.1780816,1.1780816 0 0 0 0.125,-0.0312 l 1.34375,-0.5 a 1.1780816,1.1780816 0 0 0 0.0937,-0.0312 L 118.15625,125 a 1.1780816,1.1780816 0 0 0 0.0937,-0.0625 l 1.21875,-0.71875 a 1.1780816,1.1780816 0 0 0 0.0937,-0.0625 l 1.125,-0.84375 A 1.1780816,1.1780816 0 0 0 120.75,123.25 l 1.0625,-0.9375 a 1.1780816,1.1780816 0 0 0 0.0625,-0.0937 l 0.96875,-1.0625 a 1.1780816,1.1780816 0 0 0 0.0625,-0.0625 l 0.84375,-1.125 a 1.1780816,1.1780816 0 0 0 0.0625,-0.0937 l 0.71875,-1.21875 a 1.1780816,1.1780816 0 0 0 -0.46875,-1.625 l -3.875,-2.09375 0,-7.6875 3.875,-2.09375 A 1.1780816,1.1780816 0 0 0 124.53125,103.5 l -0.71875,-1.1875 a 1.1780816,1.1780816 0 0 0 -0.0625,-0.0937 l -0.84375,-1.125 A 1.1780816,1.1780816 0 0 0 122.8125,101 l -0.9375,-1.03125 a 1.1780816,1.1780816 0 0 0 -0.0625,-0.0625 L 120.75,98.9375 a 1.1780816,1.1780816 0 0 0 -0.0625,-0.0625 l -1.125,-0.84375 a 1.1780816,1.1780816 0 0 0 -0.0937,-0.0625 L 118.25,97.25 a 1.1780816,1.1780816 0 0 0 -0.0937,-0.0625 l -1.28125,-0.625 a 1.1780816,1.1780816 0 0 0 -0.125,-0.03125 l -1.34375,-0.5 A 1.1780816,1.1780816 0 0 0 115.3125,96 l -1.40625,-0.375 a 1.1780816,1.1780816 0 0 0 -0.125,0 l -1.4375,-0.21875 a 1.1780816,1.1780816 0 0 0 -0.125,-0.03125 l -1.5,-0.0625 a 1.1780816,1.1780816 0 0 0 -0.0937,0 z m 0,2.34375 0.0937,0 1.28125,0.0625 0.0937,0 1.21875,0.1875 0.125,0.03125 1.1875,0.3125 0.0937,0.03125 1.125,0.40625 0.125,0.0625 1.0625,0.5 0.0937,0.0625 1,0.625 0.0312,0.03125 0.0625,0.03125 1.03125,0.78125 0,-0.0312 0.96875,0.90625 0.7815,0.8437 0.0937,0.0937 0.6875,0.9375 0.0312,0.0625 0.0312,0.0312 0.0312,0.0625 -11.75,6.375 a 1.1780816,1.1780816 0 0 0 0,2.0625 l 11.75,6.375 -0.0312,0.0625 -0.0312,0.0312 -0.0312,0.0625 -0.6875,0.9375 -0.0937,0.0937 -0.875,0.9375 -0.875,0.8125 -0.0625,0.0625 -0.96875,0.6875 -1.09375,0.6875 -0.0937,0.0625 -1.09375,0.5 -0.0937,0.0312 -1.125,0.4375 -0.125,0.0312 -1.25,0.3125 -1.25,0.1875 -1.375,0.0937 -0.0937,0 -1.40625,-0.0937 -1.1875,-0.15625 0,-0.0312 -1.28125,-0.3125 -0.125,-0.0312 -1.125,-0.4375 -0.0937,-0.0312 -1.09375,-0.5 -0.0937,-0.0625 -1.09375,-0.6875 -0.96875,-0.6875 -0.0625,-0.0625 -0.875,-0.8125 -0.875,-0.9375 -0.0625,-0.0937 -0.71875,-0.9375 -0.03125,-0.0625 -0.03125,-0.0312 -0.625,-1 -0.03125,-0.0937 -0.03125,-0.0312 -0.5,-1.0625 -0.03125,-0.0937 -0.4375,-1.125 -0.03125,-0.125 -0.28125,-1.1875 -0.0315,-0.0939 -0.1875,-1.34375 -0.0625,-1.25 0,-0.0625 0,-0.0625 0.0625,-1.25 0.1875,-1.34375 0.03125,-0.125 0.28125,-1.15625 0.03125,-0.125 0.4375,-1.125 0.03125,-0.0937 0.5,-1.0625 0.03125,-0.0312 0.03125,-0.0937 0.625,-1 0.0625,-0.0625 0.6875,-0.96875 0.0937,-0.0937 0.78125,-0.84375 0.0625,-0.0312 0.0312,-0.0625 0.875,-0.8125 0,0.0312 1.03135,-0.7814 0.0625,-0.03125 0.0312,-0.03125 1,-0.625 0.0937,-0.0625 1.09375,-0.5 1.21875,-0.46875 0.0937,-0.03125 1.1875,-0.3125 0.125,-0.03125 1.3125,-0.1875 1.28125,-0.0625 z m 7.21875,10.875 0,5.125 -4.6875,-2.5625 4.6875,-2.5625 z"
       id="path3242"
       inkscape:connector-curvature="0" />
    <g
       style="font-size:8px;font-style:normal;font-variant:normal;font-weight:normal;font-stretch:normal;text-align:start;line-height:125%;letter-spacing:0px;word-spacing:0px;writing-mode:lr-tb;text-anchor:start;fill:#00ff00;fill-opacity:1;stroke:none;font-family:Courier 10 Pitch;-inkscape-font-specification:Courier 10 Pitch;stroke-opacity:1;stroke-width:0.35433070999999999;stroke-miterlimit:4;stroke-dasharray:none"
       id="text4050">
      <path
         d="m 76.233376,111.76158 1.554437,-0.47021 0.54202,1.79181 -1.554437,0.47021 c -0.02085,-0.0689 -0.03938,-0.13017 -0.05559,-0.18377 -0.0996,-0.32927 -0.18724,-0.4532 -0.401645,-0.38834 -0.252691,0.0764 -0.22168,0.23421 -0.12671,0.54817 l 0.231632,0.76573 c 0.09265,0.30629 0.151979,0.44715 0.40467,0.37071 0.206748,-0.0625 0.230237,-0.1783 0.153798,-0.43099 -0.0093,-0.0306 -0.01853,-0.0613 -0.03011,-0.0995 l 3.369223,-1.01918 c 0.0093,0.0306 0.01853,0.0613 0.0278,0.0919 0.07644,0.25269 0.170126,0.34136 0.376874,0.27882 0.176118,-0.0533 0.24021,-0.17296 0.184618,-0.35674 -0.02548,-0.0842 -0.04401,-0.14549 -0.05327,-0.17612 l -0.222368,-0.7351 c -0.101918,-0.33692 -0.150561,-0.49772 -0.418567,-0.41665 -0.19909,0.0602 -0.230945,0.20359 -0.147558,0.47925 0.05096,0.16846 0.07644,0.25269 0.07644,0.25269 l -1.301745,0.39378 -0.54202,-1.79182 1.301745,-0.39377 c 0.01853,0.0613 0.03475,0.11486 0.05096,0.16846 0.101918,0.33692 0.191873,0.46851 0.413935,0.40134 0.252691,-0.0764 0.223996,-0.22656 0.129027,-0.54051 l -0.236265,-0.78105 c -0.09034,-0.29864 -0.149662,-0.43949 -0.402354,-0.36305 -0.206747,0.0625 -0.235577,0.18827 -0.159139,0.44096 0.0093,0.0306 0.01853,0.0613 0.0278,0.0919 l -3.369223,1.01918 c -0.01158,-0.0383 -0.02085,-0.0689 -0.03011,-0.0995 -0.07644,-0.25269 -0.160153,-0.33602 -0.3669,-0.27348 -0.176119,0.0533 -0.240211,0.17296 -0.184619,0.35673 0.02316,0.0766 0.03706,0.12252 0.05096,0.16846 l 0.247847,0.81934 c 0.0857,0.28332 0.158028,0.41188 0.395404,0.34008 0.199091,-0.0602 0.230945,-0.20359 0.147558,-0.47925 -0.05096,-0.16847 -0.0841,-0.25038 -0.0841,-0.25038"
         style="font-size:8px;font-style:normal;font-variant:normal;font-weight:normal;font-stretch:normal;text-align:start;line-height:125%;writing-mode:lr-tb;text-anchor:start;fill:#00ff00;font-family:Courier 10 Pitch;-inkscape-font-specification:Courier 10 Pitch;stroke:none;stroke-opacity:1;stroke-width:0.35433070999999999;stroke-miterlimit:4;stroke-dasharray:none"
         id="path2997" />
      <path
         d="m 78.497678,117.91589 -0.201522,0.13634 c -0.139399,0.0991 -0.17941,0.22301 -0.119423,0.35392 l 0.256607,0.56001 c 0.08665,0.18909 0.217245,0.24365 0.38452,0.167 0.210911,-0.0966 0.190622,-0.23695 0.05399,-0.53513 l -0.08331,-0.18182 1.607295,-0.7365 c 0.858192,-0.39324 1.064909,-0.99836 0.648338,-1.90746 -0.366582,-0.80001 -0.861076,-1.20702 -1.108352,-1.09371 -0.18182,0.0833 -0.248197,0.24573 -0.188211,0.37664 0.126637,0.27637 0.558126,0.43064 0.788073,0.93247 0.249943,0.54546 0.112033,0.91665 -0.433428,1.16659 -0.0073,0.003 -0.01455,0.007 -0.02182,0.01 -0.06058,-0.32424 -0.150848,-0.61727 -0.277486,-0.89364 -0.483222,-1.05455 -1.196804,-1.44037 -1.931358,-1.10378 -0.625462,0.2866 -0.848548,0.95202 -0.521956,1.66475 0.223281,0.48728 0.622327,0.85882 1.148049,1.08432 m 1.110017,-0.53503 -0.38546,0.17662 c -0.320004,0.14664 -0.993888,-0.24857 -1.287154,-0.88857 -0.189956,-0.41456 -0.07992,-0.80817 0.232808,-0.95147 0.400005,-0.18329 0.873603,0.10129 1.220189,0.85766 0.119973,0.26182 0.189643,0.5291 0.219617,0.80576"
         style="font-size:8px;font-style:normal;font-variant:normal;font-weight:normal;font-stretch:normal;text-align:start;line-height:125%;writing-mode:lr-tb;text-anchor:start;fill:#00ff00;font-family:Courier 10 Pitch;-inkscape-font-specification:Courier 10 Pitch;stroke:none;stroke-opacity:1;stroke-width:0.35433070999999999;stroke-miterlimit:4;stroke-dasharray:none"
         id="path2999" />
      <path
         d="m 82.971303,121.71877 0.614202,-0.39082 c 0.283478,-0.18038 0.383495,-0.29143 0.254654,-0.49391 -0.107368,-0.16874 -0.223945,-0.21783 -0.372433,-0.12335 0,0 -0.0067,0.004 -0.0135,0.009 -0.04968,-0.48043 -0.165628,-0.87128 -0.384658,-1.2155 -0.60126,-0.94493 -1.751697,-1.21801 -2.662876,-0.63823 -0.911178,0.57979 -1.148679,1.72655 -0.53883,2.68497 0.506776,0.79644 1.471908,1.22537 1.782383,1.02781 0.134989,-0.0859 0.169356,-0.24051 0.08346,-0.3755 -0.111663,-0.17549 -0.35525,-0.20066 -0.619081,-0.31725 -0.305553,-0.13745 -0.565085,-0.3516 -0.732579,-0.61483 -0.43806,-0.68844 -0.258252,-1.4192 0.396446,-1.83579 0.63445,-0.4037 1.387296,-0.21898 1.821062,0.46271 0.249093,0.39147 0.264414,0.81791 0.03553,1.24801 -0.117815,0.2172 -0.155861,0.33623 -0.06567,0.47797 0.103074,0.16199 0.239899,0.19819 0.401886,0.0951"
         style="font-size:8px;font-style:normal;font-variant:normal;font-weight:normal;font-stretch:normal;text-align:start;line-height:125%;writing-mode:lr-tb;text-anchor:start;fill:#00ff00;font-family:Courier 10 Pitch;-inkscape-font-specification:Courier 10 Pitch;stroke:none;stroke-opacity:1;stroke-width:0.35433070999999999;stroke-miterlimit:4;stroke-dasharray:none"
         id="path3001" />
      <path
         d="m 83.50817,123.89951 0.471734,0.0614 -0.213462,1.70227 c -0.178187,-0.11111 -0.318672,-0.12831 -0.428481,-0.0352 -0.134211,0.11386 -0.121837,0.23974 0.02307,0.41056 l 0.68314,0.80527 c 0.129383,0.15251 0.275043,0.17581 0.415355,0.0568 0.152513,-0.12938 0.15659,-0.24824 0.01168,-0.41905 l -0.222538,-0.26233 0.267847,-2.15755 0.745678,0.11227 c 0.364151,0.0583 0.638645,0.17159 0.781154,0.30248 0.227163,0.20594 0.33307,0.36788 0.540487,0.19192 0.134211,-0.11386 0.134038,-0.25009 0.0047,-0.40261 l -0.68314,-0.80526 c -0.144908,-0.17082 -0.278368,-0.20447 -0.394277,-0.10614 -0.09151,0.0776 -0.106861,0.19556 -0.05308,0.37025 l -1.449578,-0.24949 2.135179,-1.81135 c 0.07321,-0.0621 0.07543,-0.15841 -0.0229,-0.27432 l -0.481303,-0.56735 c -0.134558,-0.15861 -0.275043,-0.17582 -0.415355,-0.0568 -0.195216,0.16561 -0.104836,0.30924 0.128052,0.58377 l 0.103506,0.12201 -3.050256,2.58765 -0.119032,-0.14031 c -0.222537,-0.26233 -0.345271,-0.35754 -0.528286,-0.20228 -0.140311,0.11904 -0.141063,0.26655 -0.0065,0.42516 l 0.465778,0.54905 c 0.0828,0.0976 0.241591,0.0993 0.412405,-0.0456 l 0.878474,-0.74524"
         style="font-size:8px;font-style:normal;font-variant:normal;font-weight:normal;font-stretch:normal;text-align:start;line-height:125%;writing-mode:lr-tb;text-anchor:start;fill:#00ff00;font-family:Courier 10 Pitch;-inkscape-font-specification:Courier 10 Pitch;stroke:none;stroke-opacity:1;stroke-width:0.35433070999999999;stroke-miterlimit:4;stroke-dasharray:none"
         id="path3003" />
      <path
         d="m 85.094074,127.50513 c -0.165594,0.18461 -0.173643,0.34934 -0.03667,0.4722 0.06551,0.0588 0.203528,0.0966 0.420626,0.13011 0.252758,0.37717 0.501836,0.68656 0.76387,0.9216 0.726548,0.65169 1.463312,0.657 1.912018,0.15675 0.512806,-0.57171 0.316785,-1.15591 -0.435425,-1.86286 -0.561027,-0.52472 -0.867816,-0.85363 -0.590046,-1.16331 0.208327,-0.23226 0.604952,-0.23114 0.992048,0.11608 0.303721,0.27242 0.454012,0.53619 0.498081,0.93036 0.03382,0.30975 -0.04017,0.51205 0.09085,0.62957 0.142928,0.1282 0.287335,0.075 0.458271,-0.11553 l 0.304479,-0.33946 c 0.176277,-0.19652 0.196236,-0.35057 0.06522,-0.46809 -0.154838,-0.13888 -0.315884,-0.0791 -0.399259,-0.15393 -0.08337,-0.0748 -0.198114,-0.41413 -0.620941,-0.79339 -0.720593,-0.64635 -1.418738,-0.67075 -1.851418,-0.18837 -0.464731,0.51811 -0.298306,1.18323 0.49375,1.89368 0.08338,0.0748 0.136973,0.12286 0.166749,0.14957 0.440694,0.39529 0.580301,0.67096 0.313214,0.96873 -0.235036,0.26203 -0.668006,0.21757 -1.090834,-0.16169 -0.39305,-0.35256 -0.598347,-0.79462 -0.571566,-1.13599 0.02039,-0.25038 0.182485,-0.39515 0.0038,-0.5554 -0.154839,-0.13888 -0.283221,-0.10358 -0.422106,0.0512 l -0.464731,0.51812"
         style="font-size:8px;font-style:normal;font-variant:normal;font-weight:normal;font-stretch:normal;text-align:start;line-height:125%;writing-mode:lr-tb;text-anchor:start;fill:#00ff00;font-family:Courier 10 Pitch;-inkscape-font-specification:Courier 10 Pitch;stroke:none;stroke-opacity:1;stroke-width:0.35433070999999999;stroke-miterlimit:4;stroke-dasharray:none"
         id="path3005" />
      <path
         d="m 90.45502,131.45954 c -0.602635,-0.40843 -0.72811,-1.12164 -0.333146,-1.70441 0.394964,-0.58277 1.103909,-0.73046 1.706544,-0.32203 0.609258,0.41291 0.734732,1.12613 0.339769,1.7089 -0.408429,0.60263 -1.117154,0.72148 -1.713167,0.31754 m -1.886293,0.61578 0.875204,-1.29137 c 0.05844,0.48416 0.343574,0.91902 0.800517,1.2287 0.847662,0.5745 1.874107,0.40038 2.457577,-0.46053 0.614886,-0.90727 0.370274,-2.00081 -0.477388,-2.57531 -0.410587,-0.27827 -0.871425,-0.36832 -1.364779,-0.26779 l 0.210946,-0.31125 c 0.06284,-0.0927 0.03016,-0.17285 -0.09566,-0.25812 l -0.496678,-0.33662 c -0.172182,-0.11669 -0.307643,-0.10219 -0.410872,0.0501 -0.112206,0.16556 -0.05775,0.29911 0.147541,0.43824 0.04636,0.0314 0.09933,0.0673 0.145692,0.0987 l -2.275532,3.35755 c -0.01987,-0.0135 -0.03974,-0.0269 -0.0596,-0.0404 -0.271517,-0.18402 -0.422137,-0.21845 -0.547808,-0.033 -0.103229,0.15231 -0.071,0.29013 0.101185,0.40682 l 1.430432,0.96946 c 0.192049,0.13016 0.307423,0.13104 0.428605,-0.0478 0.103229,-0.15231 0.07762,-0.28564 -0.08794,-0.39784 l -0.781439,-0.52961"
         style="font-size:8px;font-style:normal;font-variant:normal;font-weight:normal;font-stretch:normal;text-align:start;line-height:125%;writing-mode:lr-tb;text-anchor:start;fill:#00ff00;font-family:Courier 10 Pitch;-inkscape-font-specification:Courier 10 Pitch;stroke:none;stroke-opacity:1;stroke-width:0.35433070999999999;stroke-miterlimit:4;stroke-dasharray:none"
         id="path3007" />
      <path
         d="m 95.140877,134.18992 -0.07076,0.2328 c -0.04595,0.16473 9.72e-4,0.28621 0.129988,0.35017 l 0.5519,0.27361 c 0.186355,0.0924 0.322174,0.0526 0.403902,-0.11228 0.103047,-0.20786 -0.001,-0.3041 -0.294902,-0.44979 l -0.179189,-0.0888 0.785296,-1.58402 c 0.419298,-0.84577 0.199016,-1.44608 -0.696924,-1.89025 -0.788428,-0.39087 -1.42886,-0.39585 -1.549674,-0.15216 -0.08883,0.17919 -0.03817,0.34717 0.09084,0.41113 0.272366,0.13503 0.704756,-0.0167 1.199316,0.22848 0.537564,0.2665 0.66406,0.64174 0.397557,1.1793 -0.0036,0.007 -0.0071,0.0143 -0.01066,0.0215 -0.251167,-0.21381 -0.505767,-0.38467 -0.778133,-0.5197 -1.039291,-0.51524 -1.836619,-0.36584 -2.195509,0.35808 -0.30559,0.6164 -0.06007,1.27387 0.642347,1.6221 0.480224,0.23808 1.024168,0.27558 1.574608,0.11987 m 0.525717,-1.11446 -0.188328,0.37988 c -0.156349,0.31537 -0.928741,0.43248 -1.559483,0.11979 -0.408549,-0.20254 -0.570822,-0.57766 -0.418027,-0.88586 0.195435,-0.39421 0.742567,-0.4712 1.48799,-0.10165 0.258031,0.12792 0.480407,0.29174 0.677848,0.48784"
         style="font-size:8px;font-style:normal;font-variant:normal;font-weight:normal;font-stretch:normal;text-align:start;line-height:125%;writing-mode:lr-tb;text-anchor:start;fill:#00ff00;font-family:Courier 10 Pitch;-inkscape-font-specification:Courier 10 Pitch;stroke:none;stroke-opacity:1;stroke-width:0.35433070999999999;stroke-miterlimit:4;stroke-dasharray:none"
         id="path3009" />
      <path
         d="m 101.01176,134.3346 0.23206,-0.69003 c 0.10711,-0.31847 0.1151,-0.46771 -0.11238,-0.54421 -0.18957,-0.0638 -0.31109,-0.0287 -0.3672,0.13815 0,0 -0.003,0.008 -0.005,0.0152 -0.3406,-0.34244 -0.67645,-0.57355 -1.063169,-0.70361 -1.061572,-0.35702 -2.128,0.15368 -2.47227,1.17733 -0.34427,1.02366 0.191795,2.06486 1.268532,2.42698 0.894753,0.30092 1.915007,0.0279 2.032317,-0.3209 0.051,-0.15165 -0.0195,-0.29351 -0.17111,-0.34452 -0.19715,-0.0663 -0.402422,0.0672 -0.680904,0.14238 -0.324047,0.0851 -0.660506,0.0817 -0.956229,-0.0177 -0.773431,-0.26012 -1.092894,-0.9415 -0.84553,-1.67702 0.239714,-0.71276 0.941361,-1.04229 1.707209,-0.78473 0.439794,0.14791 0.719744,0.46995 0.812064,0.94833 0.0449,0.24299 0.0901,0.35948 0.24935,0.41304 0.18198,0.0612 0.31116,0.003 0.37236,-0.17862"
         style="font-size:8px;font-style:normal;font-variant:normal;font-weight:normal;font-stretch:normal;text-align:start;line-height:125%;writing-mode:lr-tb;text-anchor:start;fill:#00ff00;font-family:Courier 10 Pitch;-inkscape-font-specification:Courier 10 Pitch;stroke:none;stroke-opacity:1;stroke-width:0.35433070999999999;stroke-miterlimit:4;stroke-dasharray:none"
         id="path3011" />
      <path
         d="m 102.33946,134.94741 c 0.27032,-0.60822 0.83716,-0.89136 1.51306,-0.76289 0.62089,0.11801 1.03198,0.61145 0.98619,1.23792 l -2.49925,-0.47503 m -0.11133,0.5 2.57785,0.48998 c 0.47156,0.0896 0.63661,0.121 0.70532,-0.24053 0.16283,-0.85666 -0.39552,-1.81783 -1.55869,-2.03891 -1.18675,-0.22557 -2.14902,0.38143 -2.35816,1.48173 -0.2181,1.14745 0.38175,2.01879 1.56851,2.24435 0.51871,0.0986 1.10062,0.0789 1.67649,-0.0804 0.24883,-0.0667 0.38127,-0.16369 0.41115,-0.32087 0.0269,-0.14147 -0.0701,-0.27391 -0.21942,-0.30229 -0.34581,-0.0657 -0.93207,0.31958 -1.71014,0.17169 -0.79378,-0.15088 -1.19403,-0.65854 -1.09291,-1.40479"
         style="font-size:8px;font-style:normal;font-variant:normal;font-weight:normal;font-stretch:normal;text-align:start;line-height:125%;writing-mode:lr-tb;text-anchor:start;fill:#00ff00;font-family:Courier 10 Pitch;-inkscape-font-specification:Courier 10 Pitch;stroke:none;stroke-opacity:1;stroke-width:0.35433070999999999;stroke-miterlimit:4;stroke-dasharray:none"
         id="path3013" />
      <path
         d="m 112.64531,135.86907 -1.06374,-2.36514 c -0.089,-0.19306 -0.222,-0.24579 -0.44517,-0.22649 l -0.63762,0.0551 c -0.16738,0.0145 -0.24678,0.1177 -0.2323,0.28507 0.0179,0.20723 0.12636,0.25406 0.39735,0.23062 0.0239,-0.002 0.0399,-0.003 0.0638,-0.006 l 0.19447,3.54844 c -0.0478,0.004 -0.0877,0.008 -0.12753,0.011 -0.27895,0.0241 -0.37774,0.0889 -0.35913,0.30407 0.0159,0.18332 0.1118,0.27138 0.29511,0.25553 l 1.09193,-0.0944 c 0.27098,-0.0234 0.38709,-0.0736 0.36641,-0.31273 -0.0179,-0.20723 -0.15165,-0.26793 -0.43858,-0.24312 -0.17534,0.0152 -0.26232,0.0307 -0.26232,0.0307 l -0.21778,-3.35371 0.97478,2.17209 c 0.0903,0.20899 0.20016,0.27176 0.41536,0.25315 0.22316,-0.0193 0.32057,-0.1 0.37369,-0.32139 l 0.57145,-2.30582 0.37718,3.33992 c -0.0558,0.005 -0.11158,0.01 -0.16737,0.0145 -0.32678,0.0283 -0.46611,0.0885 -0.44681,0.31166 0.0207,0.23911 0.14368,0.26862 0.41467,0.24518 l 1.09192,-0.0944 c 0.18332,-0.0159 0.26272,-0.11908 0.24686,-0.3024 -0.0186,-0.2152 -0.12705,-0.26203 -0.406,-0.2379 -0.0399,0.003 -0.0797,0.007 -0.12753,0.011 l -0.41763,-3.52914 c 0.0239,-0.002 0.0399,-0.003 0.0638,-0.006 0.27099,-0.0234 0.36977,-0.0882 0.35185,-0.29541 -0.0145,-0.16738 -0.11042,-0.25544 -0.27779,-0.24096 l -0.64559,0.0558 c -0.22317,0.0193 -0.34518,0.0941 -0.39968,0.29955 l -0.61798,2.51059"
         style="font-size:8px;font-style:normal;font-variant:normal;font-weight:normal;font-stretch:normal;text-align:start;line-height:125%;writing-mode:lr-tb;text-anchor:start;fill:#00ff00;font-family:Courier 10 Pitch;-inkscape-font-specification:Courier 10 Pitch;stroke:none;stroke-opacity:1;stroke-width:0.35433070999999999;stroke-miterlimit:4;stroke-dasharray:none"
         id="path3015" />
      <path
         d="m 118.31187,136.36519 0.0917,0.22536 c 0.0681,0.15687 0.1811,0.22164 0.32158,0.19001 l 0.60097,-0.13528 c 0.20292,-0.0457 0.2833,-0.16218 0.24289,-0.34168 -0.051,-0.22634 -0.19242,-0.23549 -0.51241,-0.16346 l -0.19512,0.0439 -0.38828,-1.72483 c -0.20731,-0.92096 -0.75662,-1.24831 -1.7322,-1.0287 -0.85852,0.19326 -1.35897,0.59293 -1.29923,0.85828 0.0439,0.19512 0.1891,0.29364 0.32959,0.26202 0.29658,-0.0668 0.53673,-0.45703 1.07525,-0.57826 0.58536,-0.13177 0.92001,0.0799 1.05178,0.66525 0.002,0.008 0.004,0.0156 0.005,0.0234 -0.32975,-0.008 -0.63512,0.02 -0.9317,0.0867 -1.13168,0.25475 -1.65668,0.87315 -1.47923,1.66142 0.15109,0.67121 0.75601,1.02705 1.52087,0.85487 0.52291,-0.11772 0.96893,-0.43132 1.29824,-0.89907 m -0.29398,-1.19665 0.0931,0.41365 c 0.0773,0.34341 -0.44868,0.92102 -1.1355,1.07563 -0.44486,0.10015 -0.80723,-0.0889 -0.88277,-0.42449 -0.0966,-0.42926 0.27971,-0.83379 1.0914,-1.0165 0.28097,-0.0632 0.55687,-0.0762 0.83375,-0.0483"
         style="font-size:8px;font-style:normal;font-variant:normal;font-weight:normal;font-stretch:normal;text-align:start;line-height:125%;writing-mode:lr-tb;text-anchor:start;fill:#00ff00;font-family:Courier 10 Pitch;-inkscape-font-specification:Courier 10 Pitch;stroke:none;stroke-opacity:1;stroke-width:0.35433070999999999;stroke-miterlimit:4;stroke-dasharray:none"
         id="path3017" />
      <path
         d="m 120.60751,135.66567 c -0.03,0.0112 -0.0525,0.0195 -0.075,0.0279 -0.29989,0.11166 -0.4106,0.2041 -0.33244,0.41402 0.0642,0.17243 0.19516,0.22611 0.40508,0.14795 0.0975,-0.0363 0.16494,-0.0614 0.19493,-0.0726 l 0.66725,-0.24843 c 0.2774,-0.10328 0.38428,-0.16015 0.29216,-0.40756 -0.0754,-0.20242 -0.19516,-0.22611 -0.45007,-0.13121 -0.045,0.0168 -0.0947,0.0438 -0.15465,0.0661 l -0.56665,-1.52193 c -0.20377,-0.5473 0.18322,-1.06699 0.62556,-1.23168 0.47982,-0.17865 0.85859,0.0132 1.07631,0.59803 l 0.56665,1.52194 c -0.045,0.0168 -0.0825,0.0307 -0.11995,0.0447 -0.26241,0.0977 -0.34783,0.18926 -0.27246,0.39168 0.0893,0.23991 0.20266,0.22333 0.46506,0.12563 l 0.8097,-0.30147 c 0.2624,-0.0977 0.37032,-0.19763 0.29216,-0.40755 -0.0698,-0.18744 -0.20737,-0.21304 -0.43978,-0.12651 -0.0525,0.0195 -0.11246,0.0419 -0.16494,0.0614 l -0.61689,-1.65688 c -0.31543,-0.84719 -0.98052,-1.12029 -1.67776,-0.86069 -0.38236,0.14236 -0.65832,0.43291 -0.88787,0.89399 l -0.0921,-0.24741 c -0.0335,-0.09 -0.1233,-0.12482 -0.26575,-0.0718 l -0.34487,0.1284 c -0.33737,0.12562 -0.50231,0.18703 -0.4074,0.44193 0.0698,0.18743 0.20265,0.22333 0.43507,0.13679 0.0525,-0.0195 0.11246,-0.0419 0.16494,-0.0614 l 0.8737,2.34663"
         style="font-size:8px;font-style:normal;font-variant:normal;font-weight:normal;font-stretch:normal;text-align:start;line-height:125%;writing-mode:lr-tb;text-anchor:start;fill:#00ff00;font-family:Courier 10 Pitch;-inkscape-font-specification:Courier 10 Pitch;stroke:none;stroke-opacity:1;stroke-width:0.35433070999999999;stroke-miterlimit:4;stroke-dasharray:none"
         id="path3019" />
      <path
         d="m 126.94474,130.71788 -0.3447,-0.64122 c -0.15909,-0.29595 -0.26251,-0.40385 -0.4739,-0.29021 -0.17616,0.0947 -0.23367,0.20736 -0.15034,0.36238 0,0 0.004,0.007 0.008,0.0141 -0.48278,0.0143 -0.88109,0.10125 -1.24045,0.29443 -0.9865,0.53031 -1.34326,1.65761 -0.8319,2.60887 0.51137,0.95126 1.63761,1.27227 2.63819,0.73439 0.83148,-0.44697 1.33007,-1.37803 1.15583,-1.70216 -0.0758,-0.14093 -0.22744,-0.18655 -0.36837,-0.11079 -0.18321,0.0985 -0.22618,0.33957 -0.36181,0.59413 -0.15951,0.29464 -0.39212,0.53776 -0.66693,0.68549 -0.71873,0.38637 -1.43433,0.15342 -1.80175,-0.53008 -0.35606,-0.66236 -0.1166,-1.39962 0.59508,-1.7822 0.40869,-0.2197 0.8351,-0.20369 1.24725,0.0561 0.20797,0.13343 0.32389,0.18011 0.47186,0.10056 0.16912,-0.0909 0.21527,-0.22471 0.12436,-0.39382"
         style="font-size:8px;font-style:normal;font-variant:normal;font-weight:normal;font-stretch:normal;text-align:start;line-height:125%;writing-mode:lr-tb;text-anchor:start;fill:#00ff00;font-family:Courier 10 Pitch;-inkscape-font-specification:Courier 10 Pitch;stroke:none;stroke-opacity:1;stroke-width:0.35433070999999999;stroke-miterlimit:4;stroke-dasharray:none"
         id="path3021" />
      <path
         d="m 129.10092,131.55301 c -0.0258,0.0189 -0.0452,0.033 -0.0646,0.0472 -0.25848,0.18864 -0.34004,0.30759 -0.20799,0.48853 0.10847,0.14862 0.24907,0.16486 0.41709,0.0422 l 0.84006,-0.6131 c 0.1874,-0.13677 0.21901,-0.22916 0.087,-0.4101 -0.12734,-0.17447 -0.24907,-0.16486 -0.46878,-0.005 -0.0388,0.0283 -0.0793,0.0678 -0.13099,0.1055 l -0.95738,-1.3118 c -0.34427,-0.47173 -0.11236,-1.07676 0.2689,-1.35501 0.41357,-0.30183 0.84952,-0.23374 1.21738,0.2703 l 0.95737,1.3118 c -0.0582,0.0424 -0.0905,0.066 -0.12278,0.0896 -0.22617,0.16507 -0.27716,0.27161 -0.14983,0.44609 0.13205,0.18094 0.22969,0.17901 0.41709,0.0422 l 0.84006,-0.6131 c 0.16802,-0.12262 0.19543,-0.26147 0.087,-0.4101 -0.1179,-0.16155 -0.25728,-0.14897 -0.4576,-0.003 -0.0452,0.033 -0.0905,0.066 -0.13571,0.099 l -1.04226,-1.42811 c -0.53293,-0.73021 -1.25357,-0.80842 -1.85454,-0.36982 -0.32956,0.24053 -0.5166,0.59492 -0.61281,1.10091 l -1.04226,-1.42812 c -0.0566,-0.0775 -0.15248,-0.0868 -0.27526,0.003 l -0.47819,0.349 c -0.16802,0.12262 -0.19543,0.26147 -0.087,0.4101 0.1179,0.16155 0.25082,0.15368 0.45114,0.007 0.0452,-0.033 0.10165,-0.0643 0.14688,-0.0973 l 2.35807,3.23103"
         style="font-size:8px;font-style:normal;font-variant:normal;font-weight:normal;font-stretch:normal;text-align:start;line-height:125%;writing-mode:lr-tb;text-anchor:start;fill:#00ff00;font-family:Courier 10 Pitch;-inkscape-font-specification:Courier 10 Pitch;stroke:none;stroke-opacity:1;stroke-width:0.35433070999999999;stroke-miterlimit:4;stroke-dasharray:none"
         id="path3023" />
      <path
         d="m 131.86974,127.3987 c -0.34033,-0.57201 -0.24401,-1.19826 0.25129,-1.67578 0.45498,-0.43865 1.09524,-0.48918 1.58017,-0.0899 l -1.83146,1.76571 m 0.34384,0.3797 1.88905,-1.82123 c 0.34556,-0.33315 0.46651,-0.44976 0.21109,-0.71468 -0.60522,-0.62777 -1.71234,-0.72721 -2.56471,0.0946 -0.86965,0.83843 -0.93003,1.97455 -0.15267,2.78085 0.81066,0.84085 1.86842,0.85453 2.73808,0.0161 0.38011,-0.36647 0.70018,-0.85284 0.90282,-1.41492 0.0893,-0.24165 0.0866,-0.40578 -0.0244,-0.52096 -0.1,-0.10367 -0.26407,-0.10101 -0.3735,0.004 -0.25341,0.24432 -0.27754,0.94544 -0.84771,1.49514 -0.58169,0.56081 -1.22729,0.59427 -1.77803,0.0807"
         style="font-size:8px;font-style:normal;font-variant:normal;font-weight:normal;font-stretch:normal;text-align:start;line-height:125%;writing-mode:lr-tb;text-anchor:start;fill:#00ff00;font-family:Courier 10 Pitch;-inkscape-font-specification:Courier 10 Pitch;stroke:none;stroke-opacity:1;stroke-width:0.35433070999999999;stroke-miterlimit:4;stroke-dasharray:none"
         id="path3025" />
      <path
         d="m 136.24341,125.64258 c 0.19473,0.15358 0.35963,0.15119 0.47358,0.007 0.0545,-0.0691 0.0835,-0.20923 0.10323,-0.42802 0.36042,-0.27612 0.65342,-0.54428 0.8714,-0.82066 0.6044,-0.76634 0.56306,-1.50197 0.0354,-1.91811 -0.60302,-0.47559 -1.17365,-0.24299 -1.83157,0.55246 -0.48815,0.59311 -0.79699,0.9201 -1.12363,0.66249 -0.24497,-0.19321 -0.26896,-0.58911 0.0531,-0.9974 0.25266,-0.32036 0.50639,-0.48704 0.89698,-0.55597 0.30699,-0.0534 0.51356,0.008 0.62255,-0.13051 0.1189,-0.15076 0.0567,-0.29151 -0.1443,-0.45004 l -0.35805,-0.28239 c -0.20729,-0.16348 -0.36228,-0.17365 -0.47127,-0.0355 -0.12881,0.16332 -0.059,0.32026 -0.12836,0.4082 -0.0694,0.0879 -0.40076,0.22393 -0.7525,0.66992 -0.59945,0.76005 -0.57961,1.45834 -0.0708,1.85962 0.54649,0.43101 1.19974,0.22282 1.85863,-0.61261 0.0694,-0.0879 0.11395,-0.14448 0.13872,-0.17589 0.3666,-0.46482 0.63289,-0.6216 0.94696,-0.37389 0.27639,0.21798 0.25942,0.65289 -0.0923,1.09888 -0.32697,0.41457 -0.75516,0.64744 -1.09754,0.64232 -0.25116,-0.005 -0.4059,-0.15711 -0.55452,0.0313 -0.12881,0.16332 -0.0854,0.28921 0.0779,0.41802 l 0.54649,0.431"
         style="font-size:8px;font-style:normal;font-variant:normal;font-weight:normal;font-stretch:normal;text-align:start;line-height:125%;writing-mode:lr-tb;text-anchor:start;fill:#00ff00;font-family:Courier 10 Pitch;-inkscape-font-specification:Courier 10 Pitch;stroke:none;stroke-opacity:1;stroke-width:0.35433070999999999;stroke-miterlimit:4;stroke-dasharray:none"
         id="path3027" />
      <path
         d="m 137.85644,117.86437 -0.7797,1.3234 -0.68237,-0.40203 c -0.33085,-0.19492 -0.48495,-0.24857 -0.62708,-0.007 -0.10558,0.17921 -0.0578,0.31878 0.12829,0.42842 0.0896,0.0528 0.15164,0.0893 0.17921,0.10558 l 0.68927,0.40609 -0.21929,0.37221 c -0.19086,0.32395 -0.2514,0.47399 -0.0308,0.60394 0.16543,0.0975 0.28308,0.0554 0.39273,-0.13075 l 0.33299,-0.5652 1.12351,0.66193 c 0.0345,0.0203 0.0689,0.0406 0.10339,0.0609 0.31017,0.18274 0.58305,0.33422 0.85197,0.33481 0.45145,0.006 0.82804,-0.25497 1.1326,-0.77192 0.18681,-0.31706 0.30431,-0.72138 0.3866,-1.2393 0.0497,-0.30498 0.0263,-0.48591 -0.13224,-0.57931 -0.12407,-0.0731 -0.30622,-0.0318 -0.37932,0.0922 -0.15837,0.26882 -0.0639,0.92801 -0.38472,1.47253 -0.34924,0.59277 -0.73202,0.42296 -1.26965,0.10621 l -1.12351,-0.66192 0.80406,-1.36475 c 0.10964,-0.18611 0.0907,-0.32727 -0.0679,-0.42067 -0.17232,-0.10153 -0.30216,-0.0387 -0.42804,0.17493"
         style="font-size:8px;font-style:normal;font-variant:normal;font-weight:normal;font-stretch:normal;text-align:start;line-height:125%;writing-mode:lr-tb;text-anchor:start;fill:#00ff00;font-family:Courier 10 Pitch;-inkscape-font-specification:Courier 10 Pitch;stroke:none;stroke-opacity:1;stroke-width:0.35433070999999999;stroke-miterlimit:4;stroke-dasharray:none"
         id="path3029" />
      <path
         d="m 139.91239,116.57773 c -0.53885,-0.39069 -0.69816,-1.00396 -0.43219,-1.63847 0.24433,-0.58286 0.81236,-0.88257 1.41568,-0.70774 l -0.98349,2.34621 m 0.46601,0.21269 1.01441,-2.41999 c 0.18556,-0.44268 0.25051,-0.59762 -0.0889,-0.73988 -0.8042,-0.33711 -1.86033,0.01 -2.31805,1.1015 -0.467,1.11408 -0.073,2.18139 0.95994,2.61437 1.07719,0.45153 2.05407,0.0456 2.52107,-1.06846 0.20411,-0.48694 0.30565,-1.06027 0.26939,-1.65665 -0.0136,-0.25726 -0.081,-0.40695 -0.22854,-0.4688 -0.1328,-0.0557 -0.28249,0.0117 -0.34125,0.15188 -0.13608,0.32464 0.11914,0.97811 -0.18704,1.70853 -0.31236,0.74518 -0.89205,1.03132 -1.60105,0.7775"
         style="font-size:8px;font-style:normal;font-variant:normal;font-weight:normal;font-stretch:normal;text-align:start;line-height:125%;writing-mode:lr-tb;text-anchor:start;fill:#00ff00;font-family:Courier 10 Pitch;-inkscape-font-specification:Courier 10 Pitch;stroke:none;stroke-opacity:1;stroke-width:0.35433070999999999;stroke-miterlimit:4;stroke-dasharray:none"
         id="path3031" />
      <path
         d="m 143.31489,111.88162 -1.56133,-0.41679 c -0.43786,-0.65509 -0.62582,-1.16067 -0.5144,-1.57806 0.0784,-0.29371 0.35361,-0.39413 0.40726,-0.59509 0.0433,-0.16232 -0.0813,-0.37776 -0.26683,-0.42728 -0.27826,-0.0743 -0.56123,0.14827 -0.68709,0.61976 -0.16094,0.60289 -0.003,1.19144 0.4659,1.8218 l -0.64154,-0.17125 c -0.10821,-0.0289 -0.17315,0.0283 -0.21029,0.16742 l -0.22903,0.85796 c -0.0536,0.20096 0.005,0.32414 0.18233,0.3716 0.19324,0.0516 0.29942,-0.036 0.36544,-0.28334 0.0103,-0.0387 0.0289,-0.10821 0.0516,-0.19323 l 0.0681,-0.25507 2.41929,0.64581 -0.17744,0.66472 c -0.0557,0.20869 4.2e-4,0.3396 0.1782,0.38706 0.17777,0.0474 0.29941,-0.036 0.35306,-0.23696 l 0.65819,-2.46566 c 0.0598,-0.22416 0.0284,-0.32362 -0.188,-0.38139 -0.1855,-0.0495 -0.28756,0.0226 -0.33914,0.21583 l -0.33425,1.25216"
         style="font-size:8px;font-style:normal;font-variant:normal;font-weight:normal;font-stretch:normal;text-align:start;line-height:125%;writing-mode:lr-tb;text-anchor:start;fill:#00ff00;font-family:Courier 10 Pitch;-inkscape-font-specification:Courier 10 Pitch;stroke:none;stroke-opacity:1;stroke-width:0.35433070999999999;stroke-miterlimit:4;stroke-dasharray:none"
         id="path3033" />
    </g>
  </g>
</svg>
